<mxfile host="65bd71144e">
    <diagram id="kgpKYQtTHZ0yAKxKKP6v" name="Page-1">
        <mxGraphModel dx="1718" dy="689" grid="1" gridSize="10" guides="1" tooltips="1" connect="1" arrows="1" fold="1" page="1" pageScale="1" pageWidth="850" pageHeight="1100" math="0" shadow="0">
            <root>
                <mxCell id="0"/>
                <mxCell id="1" parent="0"/>
                <mxCell id="3nuBFxr9cyL0pnOWT2aG-1" value="Patient" style="shape=umlLifeline;perimeter=lifelinePerimeter;container=1;collapsible=0;recursiveResize=0;rounded=0;shadow=0;strokeWidth=1;fillColor=#96FF9A;size=50;" parent="1" vertex="1" treatAsSingle="0">
                    <mxGeometry x="22" y="120" width="100" height="480" as="geometry"/>
                </mxCell>
                <mxCell id="3nuBFxr9cyL0pnOWT2aG-2" value="" style="points=[];perimeter=orthogonalPerimeter;rounded=0;shadow=0;strokeWidth=1;" parent="3nuBFxr9cyL0pnOWT2aG-1" vertex="1">
                    <mxGeometry x="45" y="69" width="10" height="391" as="geometry"/>
                </mxCell>
                <mxCell id="3nuBFxr9cyL0pnOWT2aG-5" value="Submitting&#10;Provider / Facility" style="shape=umlLifeline;perimeter=lifelinePerimeter;container=1;collapsible=0;recursiveResize=0;rounded=0;shadow=0;strokeWidth=1;fillColor=#dae8fc;size=51;strokeColor=#6c8ebf;" parent="1" vertex="1" treatAsSingle="0">
                    <mxGeometry x="174" y="119" width="127" height="420" as="geometry"/>
                </mxCell>
                <mxCell id="3nuBFxr9cyL0pnOWT2aG-6" value="" style="points=[];perimeter=orthogonalPerimeter;rounded=0;shadow=0;strokeWidth=1;" parent="3nuBFxr9cyL0pnOWT2aG-5" vertex="1">
                    <mxGeometry x="59" y="70" width="10" height="350" as="geometry"/>
                </mxCell>
                <mxCell id="SfCazmH2R6rvJbLZBPh0-3" value="Secondary&#10;Providers / Facilities&#10;(if needed)" style="shape=umlLifeline;perimeter=lifelinePerimeter;container=1;collapsible=0;recursiveResize=0;rounded=0;shadow=0;strokeWidth=1;fillColor=#dae8fc;size=50;strokeColor=#6c8ebf;" parent="1" vertex="1" treatAsSingle="0">
                    <mxGeometry x="352" y="120" width="130" height="560" as="geometry"/>
                </mxCell>
                <mxCell id="SfCazmH2R6rvJbLZBPh0-4" value="" style="points=[];perimeter=orthogonalPerimeter;rounded=0;shadow=0;strokeWidth=1;" parent="SfCazmH2R6rvJbLZBPh0-3" vertex="1">
                    <mxGeometry x="60" y="69" width="10" height="201" as="geometry"/>
                </mxCell>
                <mxCell id="SfCazmH2R6rvJbLZBPh0-10" value="Compose Good Faith Estimate (GFE)" style="shape=process;whiteSpace=wrap;html=1;backgroundOutline=1;" parent="1" vertex="1">
                    <mxGeometry x="193" y="256" width="90" height="60" as="geometry"/>
                </mxCell>
                <mxCell id="SfCazmH2R6rvJbLZBPh0-11" value="" style="verticalAlign=bottom;endArrow=block;dashed=1;endSize=8;shadow=0;strokeWidth=1;entryX=0;entryY=0.25;entryDx=0;entryDy=0;exitX=1;exitY=0.25;exitDx=0;exitDy=0;endFill=1;" parent="1" source="SfCazmH2R6rvJbLZBPh0-10" target="SfCazmH2R6rvJbLZBPh0-17" edge="1">
                    <mxGeometry relative="1" as="geometry">
                        <mxPoint x="507" y="240" as="targetPoint"/>
                        <mxPoint x="292" y="239" as="sourcePoint"/>
                        <Array as="points"/>
                    </mxGeometry>
                </mxCell>
                <mxCell id="SfCazmH2R6rvJbLZBPh0-14" value="" style="verticalAlign=bottom;endArrow=block;dashed=1;endSize=8;shadow=0;strokeWidth=1;exitX=0;exitY=0.75;exitDx=0;exitDy=0;entryX=1;entryY=0.75;entryDx=0;entryDy=0;endFill=1;" parent="1" source="SfCazmH2R6rvJbLZBPh0-17" target="SfCazmH2R6rvJbLZBPh0-10" edge="1">
                    <mxGeometry relative="1" as="geometry">
                        <mxPoint x="302" y="335" as="targetPoint"/>
                        <mxPoint x="412" y="292" as="sourcePoint"/>
                        <Array as="points"/>
                    </mxGeometry>
                </mxCell>
                <mxCell id="SfCazmH2R6rvJbLZBPh0-17" value="Compose Good Faith Estimate (GFE)" style="shape=process;whiteSpace=wrap;html=1;backgroundOutline=1;" parent="1" vertex="1">
                    <mxGeometry x="373" y="256" width="90" height="60" as="geometry"/>
                </mxCell>
                <mxCell id="SfCazmH2R6rvJbLZBPh0-21" value="" style="shape=umlActor;verticalLabelPosition=bottom;verticalAlign=top;html=1;outlineConnect=0;" parent="1" vertex="1">
                    <mxGeometry x="57" y="60" width="30" height="60" as="geometry"/>
                </mxCell>
                <mxCell id="SfCazmH2R6rvJbLZBPh0-25" value="trigger AEOB creation" style="verticalAlign=bottom;endArrow=block;shadow=0;strokeWidth=1;endSize=8;startSize=7;" parent="1" edge="1">
                    <mxGeometry x="-0.0276" y="15" relative="1" as="geometry">
                        <mxPoint x="100" y="212" as="sourcePoint"/>
                        <mxPoint x="230" y="212" as="targetPoint"/>
                        <Array as="points"/>
                        <mxPoint as="offset"/>
                    </mxGeometry>
                </mxCell>
                <mxCell id="qIxCJxl5lMdrLJ7lDj4a-2" style="edgeStyle=orthogonalEdgeStyle;rounded=0;orthogonalLoop=1;jettySize=auto;html=1;endArrow=none;endFill=0;dashed=1;" parent="1" edge="1">
                    <mxGeometry relative="1" as="geometry">
                        <mxPoint x="238" y="680" as="targetPoint"/>
                        <mxPoint x="238" y="539" as="sourcePoint"/>
                        <Array as="points">
                            <mxPoint x="238" y="680"/>
                        </Array>
                    </mxGeometry>
                </mxCell>
                <mxCell id="qIxCJxl5lMdrLJ7lDj4a-3" style="edgeStyle=orthogonalEdgeStyle;rounded=0;orthogonalLoop=1;jettySize=auto;html=1;dashed=1;endArrow=none;endFill=0;" parent="1" source="3nuBFxr9cyL0pnOWT2aG-2" edge="1">
                    <mxGeometry relative="1" as="geometry">
                        <mxPoint x="72" y="680" as="targetPoint"/>
                    </mxGeometry>
                </mxCell>
                <mxCell id="aAGMAaikRAZB5L4dtnXu-1" value="1" style="ellipse;whiteSpace=wrap;html=1;aspect=fixed;fillColor=#e51400;strokeColor=#B20000;fontColor=#ffffff;" parent="1" vertex="1">
                    <mxGeometry x="160" y="220" width="20" height="20" as="geometry"/>
                </mxCell>
                <mxCell id="aAGMAaikRAZB5L4dtnXu-4" value="2" style="ellipse;whiteSpace=wrap;html=1;aspect=fixed;fillColor=#e51400;strokeColor=#B20000;fontColor=#ffffff;" parent="1" vertex="1">
                    <mxGeometry x="360" y="370" width="20" height="20" as="geometry"/>
                </mxCell>
                <mxCell id="SfCazmH2R6rvJbLZBPh0-2" value="" style="points=[];perimeter=orthogonalPerimeter;rounded=0;shadow=0;strokeWidth=1;fillColor=#E6E6E6;strokeColor=#E6E6E6;" parent="1" vertex="1">
                    <mxGeometry x="540" y="330" width="290" height="220" as="geometry"/>
                </mxCell>
                <mxCell id="8" value="Payer's Intermediary&#10;(e.g., Clearinghouse)" style="shape=umlLifeline;perimeter=lifelinePerimeter;container=1;collapsible=0;recursiveResize=0;rounded=0;shadow=0;strokeWidth=1;fillColor=#e1d5e7;strokeColor=#9673a6;dashed=1;size=50;" parent="1" vertex="1" treatAsSingle="0">
                    <mxGeometry x="539" y="120" width="130" height="560" as="geometry"/>
                </mxCell>
                <mxCell id="9" value="" style="points=[];perimeter=orthogonalPerimeter;rounded=0;shadow=0;strokeWidth=1;" parent="8" vertex="1">
                    <mxGeometry x="60" y="220" width="10" height="200" as="geometry"/>
                </mxCell>
                <mxCell id="10" value="Payer" style="shape=umlLifeline;perimeter=lifelinePerimeter;container=1;collapsible=0;recursiveResize=0;rounded=0;shadow=0;strokeWidth=1;fillColor=#e1d5e7;strokeColor=#9673a6;size=50;" parent="1" vertex="1" treatAsSingle="0">
                    <mxGeometry x="701" y="120" width="130" height="560" as="geometry"/>
                </mxCell>
                <mxCell id="11" value="" style="points=[];perimeter=orthogonalPerimeter;rounded=0;shadow=0;strokeWidth=1;" parent="10" vertex="1">
                    <mxGeometry x="60" y="230" width="10" height="170" as="geometry"/>
                </mxCell>
                <mxCell id="3" value="" style="group" parent="1" vertex="1" connectable="0">
                    <mxGeometry x="571" y="360" width="70" height="170" as="geometry"/>
                </mxCell>
                <mxCell id="4" value="" style="rounded=0;whiteSpace=wrap;html=1;fillColor=#ffe6cc;strokeColor=#d79b00;dashed=1;" parent="3" vertex="1">
                    <mxGeometry x="-2" y="-3.1875" width="70" height="170" as="geometry"/>
                </mxCell>
                <mxCell id="5" value="&lt;font style=&quot;font-size: 12px ; font-weight: normal&quot;&gt;FHIR-X12&lt;br&gt;Translator&lt;/font&gt;" style="text;strokeColor=none;fillColor=none;html=1;fontSize=24;fontStyle=1;verticalAlign=middle;align=center;" parent="3" vertex="1">
                    <mxGeometry y="32.22916666666666" width="70" height="56.666666666666664" as="geometry"/>
                </mxCell>
                <mxCell id="7" value="Compose AEOB" style="shape=process;whiteSpace=wrap;html=1;backgroundOutline=1;" parent="1" vertex="1">
                    <mxGeometry x="726.5" y="375" width="81" height="120" as="geometry"/>
                </mxCell>
                <mxCell id="aAGMAaikRAZB5L4dtnXu-12" value="Â AEOB Bundle id" style="verticalAlign=bottom;endArrow=block;endSize=8;shadow=0;strokeWidth=1;endFill=1;entryX=0.9;entryY=0.863;entryDx=0;entryDy=0;entryPerimeter=0;" parent="1" target="3nuBFxr9cyL0pnOWT2aG-6" edge="1">
                    <mxGeometry x="0.1294" relative="1" as="geometry">
                        <mxPoint x="250" y="491" as="targetPoint"/>
                        <mxPoint x="570" y="491" as="sourcePoint"/>
                        <mxPoint as="offset"/>
                    </mxGeometry>
                </mxCell>
                <mxCell id="SfCazmH2R6rvJbLZBPh0-5" value="Submit GFE FHIR Bundle" style="verticalAlign=bottom;endArrow=block;shadow=0;strokeWidth=1;endSize=8;exitX=1.1;exitY=0.651;exitDx=0;exitDy=0;exitPerimeter=0;" parent="1" source="3nuBFxr9cyL0pnOWT2aG-6" edge="1">
                    <mxGeometry relative="1" as="geometry">
                        <mxPoint x="250" y="418" as="sourcePoint"/>
                        <mxPoint x="570" y="418" as="targetPoint"/>
                        <Array as="points"/>
                    </mxGeometry>
                </mxCell>
                <mxCell id="ogFRtUQ3psGFR55wJX58-7" value="" style="verticalAlign=bottom;endArrow=block;shadow=0;strokeWidth=1;labelBackgroundColor=none;entryX=-0.006;entryY=0.367;entryDx=0;entryDy=0;entryPerimeter=0;endSize=8;" parent="1" target="7" edge="1">
                    <mxGeometry x="0.0769" y="8" relative="1" as="geometry">
                        <mxPoint x="641" y="419" as="sourcePoint"/>
                        <mxPoint x="766" y="419.5" as="targetPoint"/>
                        <Array as="points"/>
                        <mxPoint as="offset"/>
                    </mxGeometry>
                </mxCell>
                <mxCell id="ogFRtUQ3psGFR55wJX58-9" value="" style="verticalAlign=bottom;endArrow=block;shadow=0;strokeWidth=1;labelBackgroundColor=none;endSize=8;" parent="1" edge="1">
                    <mxGeometry x="0.0192" y="-7" relative="1" as="geometry">
                        <mxPoint x="724" y="461" as="sourcePoint"/>
                        <mxPoint x="640" y="461" as="targetPoint"/>
                        <Array as="points"/>
                        <mxPoint as="offset"/>
                    </mxGeometry>
                </mxCell>
                <mxCell id="13" value="3" style="ellipse;whiteSpace=wrap;html=1;aspect=fixed;fillColor=#e51400;strokeColor=#B20000;fontColor=#ffffff;" parent="1" vertex="1">
                    <mxGeometry x="500" y="450" width="20" height="20" as="geometry"/>
                </mxCell>
            </root>
        </mxGraphModel>
    </diagram>
</mxfile>